<svg xmlns="http://www.w3.org/2000/svg" viewBox="0 0 1064.11 261.8"><defs><style>.cls-1{isolation:isolate;}.cls-2,.cls-5{fill:#f6f6f6;}.cls-3,.cls-5{mix-blend-mode:screen;}.cls-3{opacity:0.1;}.cls-4{fill:#c6c6c6;}.cls-5{opacity:0.3;}</style></defs><g class="cls-1"><g id="katman_2" data-name="katman 2"><g id="katman_4" data-name="katman 4"><path class="cls-2" d="M258.35,78.59v1.12a12.58,12.58,0,0,1-12.58,12.58H226.88v17.95a12.81,12.81,0,0,1-12.81,12.81h-2.62a12.81,12.81,0,0,1-12.81-12.81V92.29H179.75a12.59,12.59,0,0,1-12.59-12.58V78.59A12.59,12.59,0,0,1,179.75,66h18.89V47.89a12.8,12.8,0,0,1,12.81-12.81h2.62a12.8,12.8,0,0,1,12.81,12.81V66h18.89A12.58,12.58,0,0,1,258.35,78.59Z"/><g class="cls-3"><path class="cls-2" d="M168.28,79.62v1.1a12.23,12.23,0,0,0,4.07,9.12,12.59,12.59,0,0,1-5.19-10.18V78.54A12.59,12.59,0,0,1,179.75,66h18.89v-.4H199v1.79H180.55A12.28,12.28,0,0,0,168.28,79.62Z"/><path class="cls-2" d="M258.35,78.54v1.12a12.57,12.57,0,0,1-5.11,10.12,12.22,12.22,0,0,0,4-9.06v-1.1A12.28,12.28,0,0,0,245,67.34H226.53V65.55h.35V66h18.89A12.59,12.59,0,0,1,258.35,78.54Z"/></g><path class="cls-4" d="M147.48,191A102.86,102.86,0,0,1,5.81,95.77v-.38A88.22,88.22,0,0,1,26,64.3L69.75,20.54A70.12,70.12,0,0,1,158.6,12L113.68,57,81.92,88.7a62.11,62.11,0,0,0,0,87.83l.13.13A62.1,62.1,0,0,0,147.48,191Z"/><path class="cls-2" d="M265.31,168l-67.8,67.79a88.64,88.64,0,0,1-125.45,0L26,189.75A88.74,88.74,0,0,1,5.81,95.39v.38A102.86,102.86,0,0,0,147.48,191a62.44,62.44,0,0,0,9.46-4.43q3.7-2,7.29-4.28a102,102,0,0,0,17.13-13.83l21.83-21.82Z"/><path class="cls-5" d="M36.54,167.9A101.16,101.16,0,0,1,6.83,96.15v-.38A87,87,0,0,1,26.73,65.1L69.92,21.92a69.17,69.17,0,0,1,87.57-8.46l1.11-1.11a70.12,70.12,0,0,0-88.85,8.52L26,64.63A88.31,88.31,0,0,0,5.81,95.72v.38a102.86,102.86,0,0,0,141.67,95.26,62.27,62.27,0,0,1-16,3.58A101.39,101.39,0,0,1,36.54,167.9Z"/><path class="cls-2" d="M499.59,43.86c24.18,0,42.07,7.49,58.51,22.48a4.49,4.49,0,0,1,.24,6.77L539.48,92.7a4.23,4.23,0,0,1-6,0A49.39,49.39,0,0,0,500.8,80.37c-27.32,0-47.39,22.73-47.39,49.81,0,26.83,20.31,49.08,47.63,49.08,11.36,0,23.69-4.11,32.4-11.61,1.69-1.45,4.83-1.45,6.29.25L558.59,188a4.84,4.84,0,0,1-.25,6.53c-16.44,16-37.23,23.46-58.75,23.46-48.36,0-87.29-38.45-87.29-86.81A87.1,87.1,0,0,1,499.59,43.86Z"/><path class="cls-2" d="M606,153.63a45.44,45.44,0,0,1,18.62,3.87c0-9.43-1.46-14.27-13.06-14.27a102.86,102.86,0,0,0-24.18,3.63c-3.63,1.21-5.32-1.45-5.8-5.08l-2.18-15.23c-.73-4.11,1.45-5.8,3.63-6.53s19.1-3.63,32.16-3.63c30,0,40.86,12.58,40.86,41.11v53.43a4.76,4.76,0,0,1-4.6,4.6H640.8c-1.46,0-3.15-.48-4.36-3.14l-3.38-6.53C627.5,210.93,619,218,603.8,218c-19.1,0-33.37-12.82-33.37-31.92C570.43,167.41,584,153.63,606,153.63Zm6.28,40.62a10.4,10.4,0,1,0,0-20.79,10.26,10.26,0,0,0-10.39,10.15A10.52,10.52,0,0,0,612.26,194.25Z"/><path class="cls-2" d="M680.69,50.87a4.75,4.75,0,0,1,4.59-4.59h26.6a4.75,4.75,0,0,1,4.59,4.59V210.93a4.75,4.75,0,0,1-4.59,4.6h-26.6a4.75,4.75,0,0,1-4.59-4.6Z"/><path class="cls-2" d="M787.32,116.39c15.23,0,27.08,6.29,36.27,17.41,1.69,2.18,1,4.84-1.21,6.77l-14.51,13.79c-1.21,1.2-4.11.72-5.32-.49a19.18,19.18,0,0,0-33.37,13.3c0,10.88,8.22,19.59,18.86,19.59,8.46,0,12.58-3.63,16.44-7.5,1.7-1.69,3.87-2.18,5.32-1l14.51,12.58c2.18,1.93,3.39,4.35,1.69,6.77C817.06,211.18,804.48,218,787.07,218c-27.56,0-52-21.77-52-50.78C735.09,138.64,759.75,116.39,787.32,116.39Z"/><path class="cls-2" d="M844.14,50.87a4.75,4.75,0,0,1,4.59-4.59h26.6a4.75,4.75,0,0,1,4.59,4.59V210.93a4.75,4.75,0,0,1-4.59,4.6h-26.6a4.75,4.75,0,0,1-4.59-4.6Z"/><path class="cls-2" d="M904.58,70.45a19.2,19.2,0,0,1,19.11-19.34A19.41,19.41,0,0,1,943,70.45a19.2,19.2,0,0,1-19.34,19.11A19,19,0,0,1,904.58,70.45Zm1.45,53a4.6,4.6,0,0,1,4.6-4.6h26.6a4.6,4.6,0,0,1,4.59,4.6v87.52a4.76,4.76,0,0,1-4.59,4.6h-26.6a4.76,4.76,0,0,1-4.6-4.6Z"/><path class="cls-2" d="M959.47,208.27,990.9,166.2l-30.46-40.13a4.39,4.39,0,0,1,3.62-7.26H993.8a4.31,4.31,0,0,1,3.87,1.94l13.54,19.82h.73l13.78-19.82c.48-1,1.45-1.94,3.87-1.94h29.74a4.39,4.39,0,0,1,3.63,7.26L1032.49,166l30.71,42.31a4.5,4.5,0,0,1-3.63,7.26h-29.26a4.71,4.71,0,0,1-3.62-2.18l-14.75-20.79h-.73c-4.83,6.77-11.36,15.23-15.47,21a5,5,0,0,1-3.87,1.94H963.1C959,215.53,957.29,211.42,959.47,208.27Z"/></g></g></g></svg>